{"title":"When.Soldiers.Cry.2010.DVDRip.XviD-SPRiNTER","uid":5393884,"size":1494085882,"categoryP":"video","categoryS":"movies","magnet":"?xt=urn:btih:ef21909c8b27482f57c858caa9e4d00a083dd9d0&amp;dn=When.Soldiers.Cry.2010.DVDRip.XviD-SPRiNTER&amp;tr=udp%3A%2F%2Ftracker.openbittorrent.com%3A80&amp;tr=udp%3A%2F%2Fopen.demonii.com%3A1337&amp;tr=udp%3A%2F%2Ftracker.coppersurfer.tk%3A6969&amp;tr=udp%3A%2F%2Fexodus.desync.com%3A6969","seeders":0,"leechers":1,"uploader":"TvTeam","files":105,"time":1267157678,"description":" &lt;a href=&quot;http://www.torrentday.com&quot; rel=&quot;nofollow&quot; target=&quot;_NEW&quot;&gt;http://www.torrentday.com&lt;/a&gt; - Your Key To The Scene.\n\n &lt;a href=&quot;\nhttp://www.torrentday.com&quot; rel=&quot;nofollow&quot; target=&quot;_NEW&quot;&gt;\nhttp://www.torrentday.com&lt;/a&gt; :  Clean RAR Scene Releases!\n\n\nEnjoy =)\n\n...................................NFO:....................................\n\n.SPRiNTER proudly presents...\n\n\n\nWhen.Soldiers.Cry.2010.DVDRip.XviD-SPRiNTER\nhttp://www.imdb.com/title/tt1378811/\nDate: 2010.02\n\nDirector: Joe Black\nGenre: Action / War\n\nCast:\n\n Jess Weber ...  Han aka - Tunnel Rat \n Douglas Szczesny Jr. ...  David M. Church \n\n Kristin Sargent ...  Jill \n Robert Bozek ...  Max O'hair - aka Rabbit \n Brad Holzer ...  Ace \n\n\nRelease Notes:\nEnjoy!\n\n\nStats:\n\nFormat                           : AVI\nFormat/Info                      : Audio Video Interleave\nFile size                        : 1.36 GiB\nDuration                         : 1h 49mn\nOverall bit rate                 : 1 778 Kbps\nWriting application              : VirtualDubMod 1.5.10.2 (build 2540/release)\nWriting library                  : VirtualDubMod build 2540/release\n\nVideo\nID                               : 0\nFormat                           : MPEG-4 Visual\nFormat profile                   : Advanced Simple@L5\nFormat settings, BVOP            : Yes\nFormat settings, QPel            : No\nFormat settings, GMC             : No warppoints\nFormat settings, Matrix          : Default (H.263)\nMuxing mode                      : Packed bitstream\nCodec ID                         : XVID\nCodec ID/Hint                    : XviD\nDuration                         : 1h 49mn\nBit rate                         : 1 576 Kbps\nWidth                            : 640 pixels\nHeight                           : 352 pixels\nDisplay aspect ratio             : 16:9\nFrame rate                       : 23.976 fps\nResolution                       : 8 bits\nColorimetry                      : 4:2:0\nScan type                        : Progressive\nBits/(Pixel*Frame)               : 0.292\nStream size                      : 1.21 GiB (89%)\nWriting library                  : XviD 1.2.1 (UTC 2008-12-04)\n\nAudio\nID                               : 1\nFormat                           : AC-3\nFormat/Info                      : Audio Coding 3\nCodec ID                         : 2000\nDuration                         : 1h 49mn\nBit rate mode                    : Constant\nBit rate                         : 192 Kbps\nChannel(s)                       : 2 channels\nChannel positions                : L R\nSampling rate                    : 48.0 KHz\nStream size                      : 151 MiB (11%)\nAlignment                        : Split accross interleaves\nInterleave, duration             : 42 ms (1.00 video frame)\nInterleave, preload duration     : 500 ms","torrent":{"xt":"urn:btih:ef21909c8b27482f57c858caa9e4d00a083dd9d0","amp;dn":"When.Soldiers.Cry.2010.DVDRip.XviD-SPRiNTER","amp;tr":["udp%3A%2F%2Ftracker.openbittorrent.com%3A80","udp%3A%2F%2Fopen.demonii.com%3A1337","udp%3A%2F%2Ftracker.coppersurfer.tk%3A6969","udp%3A%2F%2Fexodus.desync.com%3A6969"],"infoHash":"ef21909c8b27482f57c858caa9e4d00a083dd9d0","infoHashBuffer":{"type":"Buffer","data":[239,33,144,156,139,39,72,47,87,200,88,202,169,228,208,10,8,61,217,208]},"announce":[],"urlList":[]}}